<svg xmlns="http://www.w3.org/2000/svg" style="display:none">
  <symbol id="icon-compass" viewBox="0 0 24 24" fill="none" stroke="currentColor" stroke-width="1.8" stroke-linecap="round" stroke-linejoin="round">
    <circle cx="12" cy="12" r="9"/><polygon points="15.5,8.5 13.5,13.5 8.5,15.5 10.5,10.5"/>
  </symbol>
  <symbol id="icon-plane" viewBox="0 0 24 24" fill="none" stroke="currentColor" stroke-width="1.8" stroke-linecap="round" stroke-linejoin="round">
    <path d="M10.5 13.5 3 11l1.5-1.5 5.5.5 5-5c.6-.6 1.9-1 2.5-.5s.1 1.9-.5 2.5l-5 5 .5 5.5L11 19l-2.5-7.5z"/><path d="M4.5 19.5 8 16"/>
  </symbol>
  <symbol id="icon-route" viewBox="0 0 24 24" fill="none" stroke="currentColor" stroke-width="1.8" stroke-linecap="round" stroke-linejoin="round">
    <circle cx="6" cy="19" r="2"/><circle cx="18" cy="5" r="2"/><path d="M8 19h6a4 4 0 0 0 0-8H9a4 4 0 0 1 0-8h7" stroke-dasharray="3 3"/>
  </symbol>
  <symbol id="icon-wallet" viewBox="0 0 24 24" fill="none" stroke="currentColor" stroke-width="1.8" stroke-linecap="round" stroke-linejoin="round">
    <rect x="3" y="6" width="18" height="13" rx="2"/><path d="M3 9h18"/><circle cx="16.5" cy="14" r="1" fill="currentColor" stroke="none"/>
  </symbol>
  <symbol id="icon-receipt" viewBox="0 0 24 24" fill="none" stroke="currentColor" stroke-width="1.8" stroke-linecap="round" stroke-linejoin="round">
    <path d="M6 3h12v18l-2-1.5L14 21l-2-1.5L10 21l-2-1.5L6 21V3z"/><path d="M9 8h6M9 12h6"/>
  </symbol>
  <symbol id="icon-suitcase" viewBox="0 0 24 24" fill="none" stroke="currentColor" stroke-width="1.8" stroke-linecap="round" stroke-linejoin="round">
    <rect x="4" y="7" width="16" height="13" rx="2"/><path d="M9 7V5a2 2 0 0 1 2-2h2a2 2 0 0 1 2 2v2M9 11v6M15 11v6"/>
  </symbol>
  <symbol id="icon-group" viewBox="0 0 24 24" fill="none" stroke="currentColor" stroke-width="1.8" stroke-linecap="round" stroke-linejoin="round">
    <circle cx="9" cy="8" r="3"/><path d="M3.5 20a5.5 5.5 0 0 1 11 0"/><circle cx="17" cy="9" r="2.5"/><path d="M16 14.5a5 5 0 0 1 5 5"/>
  </symbol>
  <symbol id="icon-passport" viewBox="0 0 24 24" fill="none" stroke="currentColor" stroke-width="1.8" stroke-linecap="round" stroke-linejoin="round">
    <rect x="5" y="3" width="14" height="18" rx="2"/><circle cx="12" cy="10" r="3"/><path d="M9 16.5h6"/>
  </symbol>
  <symbol id="icon-pin" viewBox="0 0 24 24" fill="none" stroke="currentColor" stroke-width="1.8" stroke-linecap="round" stroke-linejoin="round">
    <path d="M12 21s7-6.1 7-11a7 7 0 1 0-14 0c0 4.9 7 11 7 11z"/><circle cx="12" cy="10" r="2.5"/>
  </symbol>
  <symbol id="icon-calendar" viewBox="0 0 24 24" fill="none" stroke="currentColor" stroke-width="1.8" stroke-linecap="round" stroke-linejoin="round">
    <rect x="3" y="5" width="18" height="16" rx="2"/><path d="M3 9h18M8 3v4M16 3v4"/>
  </symbol>
  <symbol id="icon-chart" viewBox="0 0 24 24" fill="none" stroke="currentColor" stroke-width="1.8" stroke-linecap="round" stroke-linejoin="round">
    <path d="M4 20V4"/><path d="M4 20h16"/><path d="M8 16v-5M12 16V8M16 16v-3"/>
  </symbol>
  <symbol id="icon-gear" viewBox="0 0 24 24" fill="none" stroke="currentColor" stroke-width="1.8" stroke-linecap="round" stroke-linejoin="round">
    <circle cx="12" cy="12" r="3"/><path d="M12 2v3M12 19v3M2 12h3M19 12h3M4.9 4.9l2.1 2.1M17 17l2.1 2.1M19.1 4.9 17 7M7 17l-2.1 2.1"/>
  </symbol>
  <symbol id="icon-logout" viewBox="0 0 24 24" fill="none" stroke="currentColor" stroke-width="1.8" stroke-linecap="round" stroke-linejoin="round">
    <path d="M9 21H5a2 2 0 0 1-2-2V5a2 2 0 0 1 2-2h4"/><path d="M16 17l5-5-5-5M21 12H9"/>
  </symbol>
  <symbol id="icon-lock" viewBox="0 0 24 24" fill="none" stroke="currentColor" stroke-width="1.8" stroke-linecap="round" stroke-linejoin="round">
    <rect x="5" y="11" width="14" height="10" rx="2"/><path d="M8 11V7a4 4 0 0 1 8 0v4"/><circle cx="12" cy="16" r="1.5" fill="currentColor" stroke="none"/>
  </symbol>
  <symbol id="icon-eye" viewBox="0 0 24 24" fill="none" stroke="currentColor" stroke-width="1.8" stroke-linecap="round" stroke-linejoin="round">
    <path d="M2 12s3.5-7 10-7 10 7 10 7-3.5 7-10 7-10-7-10-7z"/><circle cx="12" cy="12" r="3"/>
  </symbol>
  <symbol id="icon-menu" viewBox="0 0 24 24" fill="none" stroke="currentColor" stroke-width="1.8" stroke-linecap="round" stroke-linejoin="round">
    <path d="M4 6h16M4 12h16M4 18h16"/>
  </symbol>
  <symbol id="icon-close" viewBox="0 0 24 24" fill="none" stroke="currentColor" stroke-width="1.8" stroke-linecap="round" stroke-linejoin="round">
    <path d="M6 6l12 12M18 6 6 18"/>
  </symbol>
  <symbol id="icon-globe" viewBox="0 0 24 24" fill="none" stroke="currentColor" stroke-width="1.8" stroke-linecap="round" stroke-linejoin="round">
    <circle cx="12" cy="12" r="9"/><path d="M3 12h18M12 3a14 14 0 0 1 0 18 14 14 0 0 1 0-18z"/>
  </symbol>
</svg>
